<?xml version="1.0" encoding="UTF-8"?>
<svg xmlns="http://www.w3.org/2000/svg" width="201" height="106" viewBox="0 0 201 106" fill="none">
  <path d="M82.1125 39V26.2H90.5875V28.4312H84.8188V31.4812H90.025V33.7125H84.8188V39H82.1125ZM94.975 39.1813C94.3625 39.1813 93.8167 39.075 93.3375 38.8625C92.8583 38.6458 92.4792 38.3271 92.2 37.9062C91.925 37.4812 91.7875 36.9521 91.7875 36.3187C91.7875 35.7854 91.8854 35.3375 92.0813 34.975C92.2771 34.6125 92.5438 34.3208 92.8813 34.1C93.2188 33.8792 93.6021 33.7125 94.0313 33.6C94.4646 33.4875 94.9188 33.4083 95.3938 33.3625C95.9521 33.3042 96.4021 33.25 96.7438 33.2C97.0854 33.1458 97.3333 33.0667 97.4875 32.9625C97.6417 32.8583 97.7188 32.7042 97.7188 32.5V32.4625C97.7188 32.0667 97.5938 31.7604 97.3438 31.5437C97.0979 31.3271 96.7479 31.2187 96.2938 31.2187C95.8146 31.2187 95.4333 31.325 95.15 31.5375C94.8667 31.7458 94.6792 32.0083 94.5875 32.325L92.125 32.125C92.25 31.5417 92.4958 31.0375 92.8625 30.6125C93.2292 30.1833 93.7021 29.8542 94.2813 29.625C94.8646 29.3917 95.5396 29.275 96.3063 29.275C96.8396 29.275 97.35 29.3375 97.8375 29.4625C98.3292 29.5875 98.7646 29.7812 99.1438 30.0437C99.5271 30.3062 99.8292 30.6437 100.05 31.0562C100.271 31.4646 100.381 31.9542 100.381 32.525V39H97.8563V37.6687H97.7813C97.6271 37.9687 97.4208 38.2333 97.1625 38.4625C96.9042 38.6875 96.5938 38.8646 96.2313 38.9937C95.8688 39.1188 95.45 39.1813 94.975 39.1813ZM95.7375 37.3437C96.1292 37.3437 96.475 37.2667 96.775 37.1125C97.075 36.9542 97.3104 36.7417 97.4813 36.475C97.6521 36.2083 97.7375 35.9062 97.7375 35.5687V34.55C97.6542 34.6042 97.5396 34.6542 97.3938 34.7C97.2521 34.7417 97.0917 34.7812 96.9125 34.8187C96.7333 34.8521 96.5542 34.8833 96.375 34.9125C96.1958 34.9375 96.0333 34.9604 95.8875 34.9812C95.575 35.0271 95.3021 35.1 95.0688 35.2C94.8354 35.3 94.6542 35.4354 94.525 35.6062C94.3958 35.7729 94.3313 35.9812 94.3313 36.2312C94.3313 36.5937 94.4625 36.8708 94.725 37.0625C94.9917 37.25 95.3292 37.3437 95.7375 37.3437ZM106.784 39.1875C105.801 39.1875 104.955 38.9792 104.247 38.5625C103.543 38.1417 103.001 37.5583 102.622 36.8125C102.247 36.0667 102.059 35.2083 102.059 34.2375C102.059 33.2542 102.249 32.3917 102.628 31.65C103.011 30.9042 103.555 30.3229 104.259 29.9062C104.964 29.4854 105.801 29.275 106.772 29.275C107.609 29.275 108.343 29.4271 108.972 29.7312C109.601 30.0354 110.099 30.4625 110.466 31.0125C110.832 31.5625 111.034 32.2083 111.072 32.95H108.559C108.489 32.4708 108.301 32.0854 107.997 31.7937C107.697 31.4979 107.303 31.35 106.816 31.35C106.403 31.35 106.043 31.4625 105.734 31.6875C105.43 31.9083 105.193 32.2312 105.022 32.6562C104.851 33.0812 104.766 33.5958 104.766 34.2C104.766 34.8125 104.849 35.3333 105.016 35.7625C105.186 36.1917 105.426 36.5187 105.734 36.7437C106.043 36.9687 106.403 37.0812 106.816 37.0812C107.12 37.0812 107.393 37.0187 107.634 36.8937C107.88 36.7687 108.082 36.5875 108.241 36.35C108.403 36.1083 108.509 35.8187 108.559 35.4812H111.072C111.03 36.2146 110.83 36.8604 110.472 37.4187C110.118 37.9729 109.628 38.4062 109.003 38.7187C108.378 39.0313 107.639 39.1875 106.784 39.1875ZM117.152 39.1875C116.164 39.1875 115.314 38.9875 114.602 38.5875C113.893 38.1833 113.347 37.6125 112.964 36.875C112.581 36.1333 112.389 35.2562 112.389 34.2437C112.389 33.2562 112.581 32.3896 112.964 31.6437C113.347 30.8979 113.887 30.3167 114.583 29.9C115.283 29.4833 116.104 29.275 117.045 29.275C117.679 29.275 118.268 29.3771 118.814 29.5812C119.364 29.7812 119.843 30.0833 120.252 30.4875C120.664 30.8917 120.985 31.4 121.214 32.0125C121.443 32.6208 121.558 33.3333 121.558 34.15V34.8812H113.452V33.2312H119.052C119.052 32.8479 118.968 32.5083 118.802 32.2125C118.635 31.9167 118.404 31.6854 118.108 31.5187C117.816 31.3479 117.477 31.2625 117.089 31.2625C116.685 31.2625 116.327 31.3562 116.014 31.5437C115.706 31.7271 115.464 31.975 115.289 32.2875C115.114 32.5958 115.024 32.9396 115.02 33.3187V34.8875C115.02 35.3625 115.108 35.7729 115.283 36.1187C115.462 36.4646 115.714 36.7312 116.039 36.9187C116.364 37.1062 116.749 37.2 117.195 37.2C117.491 37.2 117.762 37.1583 118.008 37.075C118.254 36.9917 118.464 36.8667 118.639 36.7C118.814 36.5333 118.947 36.3292 119.039 36.0875L121.502 36.25C121.377 36.8417 121.12 37.3583 120.733 37.8C120.349 38.2375 119.854 38.5792 119.245 38.825C118.641 39.0667 117.943 39.1875 117.152 39.1875ZM125.958 26.2V39H123.295V26.2H125.958ZM132.466 39.1875C131.478 39.1875 130.628 38.9875 129.916 38.5875C129.207 38.1833 128.661 37.6125 128.278 36.875C127.895 36.1333 127.703 35.2562 127.703 34.2437C127.703 33.2562 127.895 32.3896 128.278 31.6437C128.661 30.8979 129.201 30.3167 129.897 29.9C130.597 29.4833 131.418 29.275 132.359 29.275C132.993 29.275 133.582 29.3771 134.128 29.5812C134.678 29.7812 135.157 30.0833 135.566 30.4875C135.978 30.8917 136.299 31.4 136.528 32.0125C136.757 32.6208 136.872 33.3333 136.872 34.15V34.8812H128.766V33.2312H134.366C134.366 32.8479 134.282 32.5083 134.116 32.2125C133.949 31.9167 133.718 31.6854 133.422 31.5187C133.13 31.3479 132.791 31.2625 132.403 31.2625C131.999 31.2625 131.641 31.3562 131.328 31.5437C131.02 31.7271 130.778 31.975 130.603 32.2875C130.428 32.5958 130.339 32.9396 130.334 33.3187V34.8875C130.334 35.3625 130.422 35.7729 130.597 36.1187C130.776 36.4646 131.028 36.7312 131.353 36.9187C131.678 37.1062 132.064 37.2 132.509 37.2C132.805 37.2 133.076 37.1583 133.322 37.075C133.568 36.9917 133.778 36.8667 133.953 36.7C134.128 36.5333 134.261 36.3292 134.353 36.0875L136.816 36.25C136.691 36.8417 136.434 37.3583 136.047 37.8C135.664 38.2375 135.168 38.5792 134.559 38.825C133.955 39.0667 133.257 39.1875 132.466 39.1875ZM146.597 32.1375L144.159 32.2875C144.118 32.0792 144.028 31.8917 143.891 31.725C143.753 31.5542 143.572 31.4187 143.347 31.3187C143.126 31.2146 142.861 31.1625 142.553 31.1625C142.141 31.1625 141.793 31.25 141.509 31.425C141.226 31.5958 141.084 31.825 141.084 32.1125C141.084 32.3417 141.176 32.5354 141.359 32.6937C141.543 32.8521 141.857 32.9792 142.303 33.075L144.041 33.425C144.974 33.6167 145.67 33.925 146.128 34.35C146.586 34.775 146.816 35.3333 146.816 36.025C146.816 36.6542 146.63 37.2062 146.259 37.6812C145.893 38.1562 145.389 38.5271 144.747 38.7937C144.109 39.0563 143.374 39.1875 142.541 39.1875C141.27 39.1875 140.257 38.9229 139.503 38.3937C138.753 37.8604 138.314 37.1354 138.184 36.2187L140.803 36.0812C140.882 36.4687 141.074 36.7646 141.378 36.9687C141.682 37.1687 142.072 37.2687 142.547 37.2687C143.014 37.2687 143.389 37.1792 143.672 37C143.959 36.8167 144.105 36.5812 144.109 36.2937C144.105 36.0521 144.003 35.8542 143.803 35.7C143.603 35.5417 143.295 35.4208 142.878 35.3375L141.216 35.0062C140.278 34.8187 139.58 34.4937 139.122 34.0312C138.668 33.5687 138.441 32.9792 138.441 32.2625C138.441 31.6458 138.607 31.1146 138.941 30.6687C139.278 30.2229 139.751 29.8792 140.359 29.6375C140.972 29.3958 141.689 29.275 142.509 29.275C143.722 29.275 144.676 29.5312 145.372 30.0437C146.072 30.5562 146.48 31.2542 146.597 32.1375ZM156.48 32.1375L154.042 32.2875C154.001 32.0792 153.911 31.8917 153.773 31.725C153.636 31.5542 153.455 31.4187 153.23 31.3187C153.009 31.2146 152.744 31.1625 152.436 31.1625C152.023 31.1625 151.676 31.25 151.392 31.425C151.109 31.5958 150.967 31.825 150.967 32.1125C150.967 32.3417 151.059 32.5354 151.242 32.6937C151.426 32.8521 151.74 32.9792 152.186 33.075L153.923 33.425C154.857 33.6167 155.553 33.925 156.011 34.35C156.469 34.775 156.698 35.3333 156.698 36.025C156.698 36.6542 156.513 37.2062 156.142 37.6812C155.776 38.1562 155.271 38.5271 154.63 38.7937C153.992 39.0563 153.257 39.1875 152.423 39.1875C151.153 39.1875 150.14 38.9229 149.386 38.3937C148.636 37.8604 148.196 37.1354 148.067 36.2187L150.686 36.0812C150.765 36.4687 150.957 36.7646 151.261 36.9687C151.565 37.1687 151.955 37.2687 152.43 37.2687C152.896 37.2687 153.271 37.1792 153.555 37C153.842 36.8167 153.988 36.5812 153.992 36.2937C153.988 36.0521 153.886 35.8542 153.686 35.7C153.486 35.5417 153.178 35.4208 152.761 35.3375L151.098 35.0062C150.161 34.8187 149.463 34.4937 149.005 34.0312C148.551 33.5687 148.323 32.9792 148.323 32.2625C148.323 31.6458 148.49 31.1146 148.823 30.6687C149.161 30.2229 149.634 29.8792 150.242 29.6375C150.855 29.3958 151.571 29.275 152.392 29.275C153.605 29.275 154.559 29.5312 155.255 30.0437C155.955 30.5562 156.363 31.2542 156.48 32.1375ZM159.931 39.1625C159.519 39.1625 159.165 39.0167 158.869 38.725C158.577 38.4292 158.431 38.075 158.431 37.6625C158.431 37.2542 158.577 36.9042 158.869 36.6125C159.165 36.3208 159.519 36.175 159.931 36.175C160.331 36.175 160.681 36.3208 160.981 36.6125C161.281 36.9042 161.431 37.2542 161.431 37.6625C161.431 37.9375 161.36 38.1896 161.219 38.4187C161.081 38.6437 160.9 38.825 160.675 38.9625C160.45 39.0958 160.202 39.1625 159.931 39.1625ZM163.667 39V26.2H166.33V31.0125H166.411C166.528 30.7542 166.696 30.4917 166.917 30.225C167.142 29.9542 167.434 29.7292 167.792 29.55C168.155 29.3667 168.605 29.275 169.142 29.275C169.842 29.275 170.488 29.4583 171.08 29.825C171.671 30.1875 172.144 30.7354 172.498 31.4687C172.853 32.1979 173.03 33.1125 173.03 34.2125C173.03 35.2833 172.857 36.1875 172.511 36.925C172.169 37.6583 171.703 38.2146 171.111 38.5937C170.523 38.9687 169.865 39.1563 169.136 39.1563C168.619 39.1563 168.18 39.0708 167.817 38.9C167.459 38.7292 167.165 38.5146 166.936 38.2562C166.707 37.9937 166.532 37.7292 166.411 37.4625H166.292V39H163.667ZM166.273 34.2C166.273 34.7708 166.353 35.2687 166.511 35.6937C166.669 36.1187 166.898 36.45 167.198 36.6875C167.498 36.9208 167.863 37.0375 168.292 37.0375C168.726 37.0375 169.092 36.9187 169.392 36.6812C169.692 36.4396 169.919 36.1062 170.073 35.6812C170.232 35.2521 170.311 34.7583 170.311 34.2C170.311 33.6458 170.234 33.1583 170.08 32.7375C169.926 32.3167 169.698 31.9875 169.398 31.75C169.098 31.5125 168.73 31.3937 168.292 31.3937C167.859 31.3937 167.492 31.5083 167.192 31.7375C166.896 31.9667 166.669 32.2917 166.511 32.7125C166.353 33.1333 166.273 33.6292 166.273 34.2ZM177.469 26.2V39H174.806V26.2H177.469ZM183.939 39.1875C182.968 39.1875 182.129 38.9812 181.42 38.5687C180.716 38.1521 180.172 37.5729 179.789 36.8312C179.406 36.0854 179.214 35.2208 179.214 34.2375C179.214 33.2458 179.406 32.3792 179.789 31.6375C180.172 30.8917 180.716 30.3125 181.42 29.9C182.129 29.4833 182.968 29.275 183.939 29.275C184.91 29.275 185.747 29.4833 186.452 29.9C187.16 30.3125 187.706 30.8917 188.089 31.6375C188.472 32.3792 188.664 33.2458 188.664 34.2375C188.664 35.2208 188.472 36.0854 188.089 36.8312C187.706 37.5729 187.16 38.1521 186.452 38.5687C185.747 38.9812 184.91 39.1875 183.939 39.1875ZM183.952 37.125C184.393 37.125 184.762 37 185.058 36.75C185.354 36.4958 185.577 36.15 185.727 35.7125C185.881 35.275 185.958 34.7771 185.958 34.2187C185.958 33.6604 185.881 33.1625 185.727 32.725C185.577 32.2875 185.354 31.9417 185.058 31.6875C184.762 31.4333 184.393 31.3062 183.952 31.3062C183.506 31.3062 183.131 31.4333 182.827 31.6875C182.527 31.9417 182.299 32.2875 182.145 32.725C181.995 33.1625 181.92 33.6604 181.92 34.2187C181.92 34.7771 181.995 35.275 182.145 35.7125C182.299 36.15 182.527 36.4958 182.827 36.75C183.131 37 183.506 37.125 183.952 37.125ZM194.72 42.8C193.858 42.8 193.118 42.6813 192.502 42.4438C191.889 42.2104 191.402 41.8917 191.039 41.4875C190.677 41.0833 190.441 40.6292 190.333 40.125L192.795 39.7938C192.87 39.9854 192.989 40.1646 193.152 40.3313C193.314 40.4979 193.529 40.6313 193.795 40.7313C194.066 40.8354 194.395 40.8875 194.783 40.8875C195.362 40.8875 195.839 40.7458 196.214 40.4625C196.593 40.1833 196.783 39.7146 196.783 39.0563V37.3H196.67C196.554 37.5667 196.379 37.8187 196.145 38.0562C195.912 38.2937 195.612 38.4875 195.245 38.6375C194.879 38.7875 194.441 38.8625 193.933 38.8625C193.212 38.8625 192.556 38.6958 191.964 38.3625C191.377 38.025 190.908 37.5104 190.558 36.8187C190.212 36.1229 190.039 35.2437 190.039 34.1812C190.039 33.0937 190.216 32.1854 190.57 31.4562C190.924 30.7271 191.395 30.1812 191.983 29.8187C192.574 29.4562 193.222 29.275 193.927 29.275C194.464 29.275 194.914 29.3667 195.277 29.55C195.639 29.7292 195.931 29.9542 196.152 30.225C196.377 30.4917 196.549 30.7542 196.67 31.0125H196.77V29.4H199.414V39.0938C199.414 39.9104 199.214 40.5938 198.814 41.1438C198.414 41.6938 197.86 42.1063 197.152 42.3813C196.447 42.6604 195.637 42.8 194.72 42.8ZM194.777 36.8625C195.206 36.8625 195.568 36.7562 195.864 36.5437C196.164 36.3271 196.393 36.0187 196.552 35.6187C196.714 35.2146 196.795 34.7312 196.795 34.1687C196.795 33.6062 196.716 33.1187 196.558 32.7062C196.399 32.2896 196.17 31.9667 195.87 31.7375C195.57 31.5083 195.206 31.3937 194.777 31.3937C194.339 31.3937 193.97 31.5125 193.67 31.75C193.37 31.9833 193.143 32.3083 192.989 32.725C192.835 33.1417 192.758 33.6229 192.758 34.1687C192.758 34.7229 192.835 35.2021 192.989 35.6062C193.147 36.0062 193.374 36.3167 193.67 36.5375C193.97 36.7542 194.339 36.8625 194.777 36.8625Z" fill="#14141F"></path>
  <g filter="url(#filter0_d_1_693)">
    <path d="M35 27C35 20.3726 40.3726 15 47 15H59C65.6274 15 71 20.3726 71 27V39C71 45.6274 65.6274 51 59 51H47C40.3726 51 35 45.6274 35 39V27Z" fill="url(#paint0_linear_1_693)" shape-rendering="crispEdges"></path>
    <path d="M49.6848 38V28.2H56.0688V29.726H51.5748V32.344H55.1728V33.828H51.5748V38H49.6848Z" fill="white"></path>
  </g>
  <defs>
    <filter id="filter0_d_1_693" x="0" y="0" width="106" height="106" filterUnits="userSpaceOnUse" color-interpolation-filters="sRGB">
      <feFlood flood-opacity="0" result="BackgroundImageFix"></feFlood>
      <feColorMatrix in="SourceAlpha" type="matrix" values="0 0 0 0 0 0 0 0 0 0 0 0 0 0 0 0 0 0 127 0" result="hardAlpha"></feColorMatrix>
      <feMorphology radius="15" operator="erode" in="SourceAlpha" result="effect1_dropShadow_1_693"></feMorphology>
      <feOffset dy="20"></feOffset>
      <feGaussianBlur stdDeviation="25"></feGaussianBlur>
      <feComposite in2="hardAlpha" operator="out"></feComposite>
      <feColorMatrix type="matrix" values="0 0 0 0 0.686275 0 0 0 0 0.341176 0 0 0 0 0.858824 0 0 0 0.25 0"></feColorMatrix>
      <feBlend mode="normal" in2="BackgroundImageFix" result="effect1_dropShadow_1_693"></feBlend>
      <feBlend mode="normal" in="SourceGraphic" in2="effect1_dropShadow_1_693" result="shape"></feBlend>
    </filter>
    <linearGradient id="paint0_linear_1_693" x1="35" y1="15" x2="71" y2="51" gradientUnits="userSpaceOnUse">
      <stop stop-color="#22C3C3"></stop>
      <stop offset="0.5" stop-color="#AF57DB"></stop>
      <stop offset="1" stop-color="#E9638F"></stop>
    </linearGradient>
  </defs>
</svg>
