<svg width="113" height="44" viewBox="0 0 113 44" fill="none" xmlns="http://www.w3.org/2000/svg">
<path fill-rule="evenodd" clip-rule="evenodd" d="M22.6633 32.8318C22.9125 32.5681 23.0371 32.2578 23.0371 31.9011V17.5424C23.0371 17.1856 22.9125 16.8832 22.6633 16.635C22.3985 16.3713 22.0869 16.2394 21.7287 16.2394C21.3704 16.2394 21.0667 16.3713 20.8174 16.635C20.5526 16.8832 20.4202 17.1856 20.4202 17.5424V31.9011C20.4202 32.2578 20.5526 32.5681 20.8174 32.8318C21.0667 33.08 21.3704 33.204 21.7287 33.204C22.0869 33.204 22.3985 33.08 22.6633 32.8318ZM17.9903 14.285C19.0339 13.2612 20.2801 12.7494 21.7287 12.7494C23.1929 12.7494 24.439 13.2612 25.467 14.285C26.5106 15.3088 27.0325 16.5497 27.0325 18.0077V31.4357C27.0325 32.8938 26.5106 34.1347 25.467 35.1585C24.439 36.1978 23.1929 36.7174 21.7287 36.7174C21.2769 36.7174 20.8252 36.6553 20.3735 36.5312V44H16.4482V18.0077C16.4482 16.5497 16.9623 15.3088 17.9903 14.285ZM33.1531 17.5191C33.1531 17.1624 33.2855 16.8599 33.5503 16.6117C33.7995 16.3635 34.1032 16.2394 34.4615 16.2394C34.8198 16.2394 35.1313 16.3635 35.3961 16.6117C35.6453 16.8599 35.7699 17.1624 35.7699 17.5191V31.9011C35.7699 32.2578 35.6453 32.5603 35.3961 32.8085C35.1313 33.0567 34.8198 33.1808 34.4615 33.1808C34.1032 33.1808 33.7995 33.0567 33.5503 32.8085C33.2855 32.5603 33.1531 32.2578 33.1531 31.9011V17.5191ZM34.4615 12.7261C33.0129 12.7261 31.7668 13.238 30.7231 14.2617C29.6951 15.301 29.1811 16.5419 29.1811 17.9845V31.4357C29.1811 32.8783 29.6951 34.1192 30.7231 35.1585C31.7668 36.1822 33.0129 36.6941 34.4615 36.6941C35.9257 36.6941 37.1718 36.1822 38.1999 35.1585C39.2435 34.1192 39.7653 32.8783 39.7653 31.4357V17.9845C39.7653 16.5419 39.2435 15.301 38.1999 14.2617C37.1718 13.238 35.9257 12.7261 34.4615 12.7261ZM45.8859 17.5191V21.8134H48.5028V17.5191C48.5028 17.1624 48.3782 16.8599 48.1289 16.6117C47.8641 16.3635 47.5526 16.2394 47.1943 16.2394C46.8361 16.2394 46.5323 16.3635 46.2831 16.6117C46.0183 16.8599 45.8859 17.1624 45.8859 17.5191ZM43.456 14.2617C44.4996 13.238 45.7457 12.7261 47.1943 12.7261C48.6585 12.7261 49.9046 13.238 50.9327 14.2617C51.9763 15.301 52.4981 16.5419 52.4981 17.9845V25.7222H45.8859V31.9011C45.8859 32.2578 46.0183 32.5603 46.2831 32.8085C46.5323 33.0567 46.8361 33.1808 47.1943 33.1808C47.5526 33.1808 47.8641 33.0567 48.1289 32.8085C48.3782 32.5603 48.5028 32.2578 48.5028 31.9011V27.4207H52.4981V31.4357C52.4981 32.8783 51.9763 34.1192 50.9327 35.1585C49.9046 36.1822 48.6585 36.6941 47.1943 36.6941C45.7457 36.6941 44.4996 36.1822 43.456 35.1585C42.4279 34.1192 41.9139 32.8783 41.9139 31.4357V17.9845C41.9139 16.5419 42.4279 15.301 43.456 14.2617ZM75.2902 13.2612H66.1546V17.1701H68.7715V36.159H72.6734V17.1701H75.2902V13.2612ZM62.7756 23.4807L65.2724 13.3904H61.2391L59.2335 21.8517H58.5983V13.3904H54.613V36.2597H58.5983V25.7662H59.3245L61.5272 36.2597H65.5124L62.7756 23.4807Z" fill="#4C5968"/>
<path d="M97.1255 0.818325L112.997 9.47552L111.345 12.5033L108.987 11.2169V34.519C108.987 35.7962 107.952 36.8316 106.674 36.8316H84.576C83.9626 36.8316 83.3744 36.5879 82.9407 36.1542C82.507 35.7205 82.2633 35.1323 82.2633 34.519V11.2169L79.9049 12.5033L78.2534 9.47552L94.1252 0.818196L94.4435 0.628965C94.5453 0.568446 94.6506 0.516388 94.7584 0.472788L95.6252 0L96.4919 0.472758C96.5998 0.516363 96.7051 0.568432 96.8069 0.628965L97.1255 0.818325Z" fill="#D71F51"/>
<path d="M92.7442 22.2642C93.9738 21.0405 94.7057 19.5962 94.9399 17.9314C95.0102 17.4463 95.0453 16.9502 95.0453 16.443L95.0629 14.4113L95.0453 12.8237V12.0299C95.0453 10.9935 94.6589 10.1115 93.886 9.38384C93.1131 8.65619 92.1763 8.29236 91.0755 8.29236C89.9864 8.29236 89.0496 8.65619 88.265 9.38384C87.4921 10.1115 87.1057 10.9935 87.1057 12.0299V17.4849H90.0918V11.6991C90.0918 11.4455 90.1914 11.2305 90.3905 11.0541C90.5778 10.8667 90.8062 10.773 91.0755 10.773C91.3448 10.773 91.5791 10.8667 91.7781 11.0541C91.9655 11.2305 92.0592 11.4455 92.0592 11.6991V12.8733L92.0767 14.064C92.0767 16.1036 92.0709 16.228 92.0592 16.8565C92.0241 18.2897 91.4327 19.5576 90.2851 20.6601C89.1492 21.7516 88.306 22.8376 87.7556 23.918C87.2989 24.8331 87.0706 26.3035 87.0706 29.3575V32.45H95.0278V29.6717H90.0216V26.4648C90.0216 25.8143 90.2968 25.0977 90.8472 24.3149C91.257 23.7306 91.8016 23.1297 92.4808 22.5123L92.7442 22.2642Z" fill="white"/>
<path d="M104.324 12.6748C104.324 11.4841 103.944 10.4643 103.183 9.61536C102.41 8.76644 101.479 8.34197 100.39 8.34197C99.3124 8.34197 98.3873 8.76644 97.6144 9.61536C96.8532 10.4643 96.4727 11.4841 96.4727 12.6748C96.4727 16.6769 96.4785 17.5014 96.4902 17.5676H99.371V12.2945C99.371 11.9747 99.4705 11.7046 99.6696 11.4841C99.8687 11.2636 100.109 11.1534 100.39 11.1534C100.683 11.1534 100.928 11.2636 101.128 11.4841C101.327 11.7046 101.426 11.9747 101.426 12.2945V17.6833C101.426 18.0251 101.321 18.2952 101.11 18.4937C100.852 18.7473 100.448 18.874 99.898 18.874V21.6358C100.917 21.6358 101.426 22.0107 101.426 22.7604V28.8779C101.426 29.1976 101.327 29.4677 101.128 29.6882C100.928 29.9087 100.683 30.019 100.39 30.019C100.109 30.019 99.8687 29.9087 99.6696 29.6882C99.4705 29.4677 99.371 29.1976 99.371 28.8779V23.5707H96.4727V28.4975C96.4727 29.6993 96.8532 30.7246 97.6144 31.5735C98.3873 32.4224 99.3124 32.8469 100.39 32.8469C101.479 32.8469 102.41 32.4224 103.183 31.5735C103.944 30.7246 104.324 29.6993 104.324 28.4975V23.1573C104.324 22.0327 103.979 21.0515 103.288 20.2136C103.979 19.3867 104.324 18.4165 104.324 17.303V12.6748Z" fill="white"/>
<path fill-rule="evenodd" clip-rule="evenodd" d="M4.50963 35.9268V10.6383H9.62664V35.9021H14.066V6.21538H0L0.0237752 35.9006L4.50963 35.9268Z" fill="#4C5968"/>
</svg>
